<?xml version="1.0" encoding="UTF-8" standalone="no"?>
<!-- Page 1 -->

<svg
   xmlns:dc="http://purl.org/dc/elements/1.1/"
   xmlns:cc="http://creativecommons.org/ns#"
   xmlns:rdf="http://www.w3.org/1999/02/22-rdf-syntax-ns#"
   xmlns:svg="http://www.w3.org/2000/svg"
   xmlns="http://www.w3.org/2000/svg"
   xmlns:sodipodi="http://sodipodi.sourceforge.net/DTD/sodipodi-0.dtd"
   xmlns:inkscape="http://www.inkscape.org/namespaces/inkscape"
   x="0"
   y="0"
   width="1286"
   height="908"
   viewBox="0 0 1286 908"
   version="1.1"
   style="display: block;margin-left: auto;margin-right: auto;"
   id="svg70"
   sodipodi:docname="1.svg"
   inkscape:version="0.92.4 (5da689c313, 2019-01-14)">
  <metadata
     id="metadata74">
    <rdf:RDF>
      <cc:Work
         rdf:about="">
        <dc:format>image/svg+xml</dc:format>
        <dc:type
           rdf:resource="http://purl.org/dc/dcmitype/StillImage" />
        <dc:title></dc:title>
      </cc:Work>
    </rdf:RDF>
  </metadata>
  <sodipodi:namedview
     pagecolor="#ffffff"
     bordercolor="#666666"
     borderopacity="1"
     objecttolerance="10"
     gridtolerance="10"
     guidetolerance="10"
     inkscape:pageopacity="0"
     inkscape:pageshadow="2"
     inkscape:window-width="1473"
     inkscape:window-height="911"
     id="namedview72"
     showgrid="false"
     inkscape:zoom="0.51982379"
     inkscape:cx="639.81083"
     inkscape:cy="475.45391"
     inkscape:window-x="617"
     inkscape:window-y="291"
     inkscape:window-maximized="0"
     inkscape:current-layer="svg70" />
  <defs
     id="defs10">
    <clipPath
       id="c_1">
      <path
         d="M0,0H1286V908H0Z"
         id="path2" />
    </clipPath>
    <clipPath
       id="c0_1">
      <path
         d="M0,908V0H1286.4V908Z"
         id="path5" />
    </clipPath>
    <style
       type="text/css"
       id="style8"><![CDATA[
text { white-space: pre; }
path, image { pointer-events: none; }

.s1_1{
font-size: 27.52px;
font-family: SegoeUI_17;
fill: #F8F9FA;
}
.s2_1{
font-size: 18.34px;
font-family: SegoeUI_17;
fill: #F8F9FA;
}
.s3_1{
font-size: 55.03px;
font-family: SegoeUI-Bold_1b;
fill: #000;
}
.s4_1{
font-size: 73.38px;
font-family: SegoeUI_17;
fill: #000;
}
.s5_1{
font-size: 18.34px;
font-family: SegoeUI_17;
fill: #000;
}
.s6_1{
font-size: 18.34px;
font-family: ArialMT_1f;
fill: #343A40;
}
.s7_1{
font-size: 55.03px;
font-family: SegoeUI_17;
fill: #000;
}
.s8_1{
font-size: 27.52px;
font-family: SegoeUI-Bold_1b;
fill: #000;
}

.g0_1{
fill: #F8F9FA;
}
.g1_1{
fill: #343A40;
}
.g2_1{
fill: #FFFFFF;
}
.g3_1{
fill: none;
stroke: #E0E0EF;
stroke-width: 1.146;
stroke-linecap: butt;
stroke-linejoin: miter;
}
.g4_1{
fill: #E0E0EF;
}
.g5_1{
fill: #007BFF;
}

]]></style>
  </defs>
  <g
     clip-path="url(#c_1)"
     id="g66"
     transform="matrix(1,0,0,1.1187445,1.9237297,-104.06024)">
    <g
       clip-path="url(#c0_1)"
       id="g16"
       transform="matrix(1,0,0,0.98484978,0,100.0339)">
      <path
         d="M 0,0 H 1286.4 V 6602.8 H 0 Z"
         class="g0_1"
         id="path14"
         inkscape:connector-curvature="0"
         style="fill:#f8f9fa" />
    </g>
    <text
       x="137"
       y="42"
       class="s1_1"
       id="text22"
       style="font-size:27.52000046px;font-family:SegoeUI_17;white-space:pre;fill:#f8f9fa">pyogame</text>
    <text
       x="266"
       y="38"
       class="s2_1"
       id="text24"
       style="font-size:18.34000015px;font-family:SegoeUI_17;white-space:pre;fill:#f8f9fa">About</text>
    <text
       x="69"
       y="186"
       class="s3_1"
       id="text28"
       style="font-size:55.02999878px;font-family:SegoeUI-Bold_1b;white-space:pre;fill:#000000">Bot Settings Indus</text>
    <path
       style="fill:#ffffff"
       inkscape:connector-curvature="0"
       id="path30"
       class="g2_1"
       d="M 70.5,6581 V 249.9 c 0,-0.3 0.1,-0.7 0.2,-1.1 0.2,-0.3 0.4,-0.6 0.7,-0.9 0.2,-0.3 0.5,-0.5 0.9,-0.6 0.3,-0.2 0.7,-0.2 1.1,-0.2 H 1213 c 0.4,0 0.8,0 1.1,0.2 0.4,0.1 0.7,0.3 0.9,0.6 0.3,0.3 0.5,0.6 0.7,0.9 0.1,0.4 0.2,0.8 0.2,1.1 V 6581 c 0,0.4 -0.1,0.7 -0.2,1.1 -0.2,0.3 -0.4,0.6 -0.7,0.9 -0.2,0.3 -0.5,0.5 -0.9,0.6 -0.3,0.2 -0.7,0.3 -1.1,0.3 H 73.4 c -0.4,0 -0.8,-0.1 -1.1,-0.3 -0.4,-0.1 -0.7,-0.3 -0.9,-0.6 -0.3,-0.3 -0.5,-0.6 -0.7,-0.9 -0.1,-0.4 -0.2,-0.7 -0.2,-1.1 z" />
    <path
       style="fill:none;stroke:#e0e0ef;stroke-width:1.14600003;stroke-linecap:butt;stroke-linejoin:miter"
       inkscape:connector-curvature="0"
       id="path32"
       class="g3_1"
       d="M 70.5,6581 V 249.9 c 0,-0.3 0.1,-0.7 0.2,-1.1 0.2,-0.3 0.4,-0.6 0.7,-0.9 0.2,-0.3 0.5,-0.5 0.9,-0.6 0.3,-0.2 0.7,-0.2 1.1,-0.2 H 1213 c 0.4,0 0.8,0 1.1,0.2 0.4,0.1 0.7,0.3 0.9,0.6 0.3,0.3 0.5,0.6 0.7,0.9 0.1,0.4 0.2,0.8 0.2,1.1 V 6581 c 0,0.4 -0.1,0.7 -0.2,1.1 -0.2,0.3 -0.4,0.6 -0.7,0.9 -0.2,0.3 -0.5,0.5 -0.9,0.6 -0.3,0.2 -0.7,0.3 -1.1,0.3 H 73.4 c -0.4,0 -0.8,-0.1 -1.1,-0.3 -0.4,-0.1 -0.7,-0.3 -0.9,-0.6 -0.3,-0.3 -0.5,-0.6 -0.7,-0.9 -0.1,-0.4 -0.2,-0.7 -0.2,-1.1 z" />
    <path
       d="m 135.3,423.1 c 0,-1.5 0.1,-3 0.4,-4.5 0.3,-1.5 0.8,-2.9 1.3,-4.3 0.6,-1.4 1.3,-2.7 2.2,-4 0.8,-1.2 1.7,-2.4 2.8,-3.5 1.1,-1 2.2,-2 3.5,-2.8 1.2,-0.8 2.6,-1.5 3.9,-2.1 1.4,-0.6 2.9,-1 4.3,-1.3 1.5,-0.3 3,-0.5 4.5,-0.5 h 45.9 c 1.5,0 3,0.2 4.5,0.5 1.4,0.3 2.9,0.7 4.3,1.3 1.3,0.6 2.7,1.3 3.9,2.1 1.3,0.8 2.4,1.8 3.5,2.8 1.1,1.1 2,2.3 2.8,3.5 0.9,1.3 1.6,2.6 2.2,4 0.5,1.4 1,2.8 1.3,4.3 0.3,1.5 0.4,3 0.4,4.5 0,1.5 -0.1,3 -0.4,4.4 -0.3,1.5 -0.8,2.9 -1.3,4.3 -0.6,1.4 -1.3,2.8 -2.2,4 -0.8,1.3 -1.7,2.4 -2.8,3.5 -1.1,1 -2.2,2 -3.5,2.8 -1.2,0.9 -2.6,1.6 -3.9,2.1 -1.4,0.6 -2.9,1.1 -4.3,1.4 -1.5,0.2 -3,0.4 -4.5,0.4 h -45.9 c -1.5,0 -3,-0.2 -4.5,-0.4 -1.4,-0.3 -2.9,-0.8 -4.3,-1.4 -1.3,-0.5 -2.7,-1.2 -3.9,-2.1 -1.3,-0.8 -2.4,-1.8 -3.5,-2.8 -1.1,-1.1 -2,-2.2 -2.8,-3.5 -0.9,-1.2 -1.6,-2.6 -2.2,-4 -0.5,-1.4 -1,-2.8 -1.3,-4.3 -0.3,-1.4 -0.4,-2.9 -0.4,-4.4 z"
       class="g4_1"
       id="path36"
       inkscape:connector-curvature="0"
       style="fill:#e0e0ef" />
    <text
       x="117"
       y="363"
       class="s4_1"
       id="text38"
       style="font-size:73.37999725px;font-family:SegoeUI_17;white-space:pre;fill:#000000">Active</text>
    <text
       x="117"
       y="520"
       dx="0 -0.5 0 0 0 0 0 0 0 0 0 0 0 0 0 0"
       class="s5_1"
       id="text40"
       style="font-size:18.34000015px;font-family:SegoeUI_17;white-space:pre;fill:#000000">Repead every min</text>
    <path
       d="M 112.9,580.1 V 548 c 0,-0.5 0.1,-1 0.3,-1.5 0.2,-0.5 0.5,-0.9 0.9,-1.3 0.4,-0.4 0.8,-0.7 1.3,-0.9 0.5,-0.2 1,-0.3 1.5,-0.3 h 1052.5 c 0.6,0 1.1,0.1 1.6,0.3 0.5,0.2 0.9,0.5 1.3,0.9 0.4,0.4 0.6,0.8 0.9,1.3 0.2,0.5 0.3,1 0.3,1.5 v 32.1 c 0,0.6 -0.1,1.1 -0.3,1.6 -0.3,0.5 -0.5,0.9 -0.9,1.3 -0.4,0.3 -0.8,0.6 -1.3,0.8 -0.5,0.2 -1,0.3 -1.6,0.3 H 116.9 c -0.5,0 -1,-0.1 -1.5,-0.3 -0.5,-0.2 -0.9,-0.5 -1.3,-0.8 -0.4,-0.4 -0.7,-0.8 -0.9,-1.3 -0.2,-0.5 -0.3,-1 -0.3,-1.6 z"
       class="g2_1"
       id="path42"
       inkscape:connector-curvature="0"
       style="fill:#ffffff" />
    <path
       d="M 112.9,580.1 V 548 c 0,-0.5 0.1,-1 0.3,-1.5 0.2,-0.5 0.5,-0.9 0.9,-1.3 0.4,-0.4 0.8,-0.7 1.3,-0.9 0.5,-0.2 1,-0.3 1.5,-0.3 h 1052.5 c 0.6,0 1.1,0.1 1.6,0.3 0.5,0.2 0.9,0.5 1.3,0.9 0.4,0.4 0.6,0.8 0.9,1.3 0.2,0.5 0.3,1 0.3,1.5 v 32.1 c 0,0.6 -0.1,1.1 -0.3,1.6 -0.3,0.5 -0.5,0.9 -0.9,1.3 -0.4,0.3 -0.8,0.6 -1.3,0.8 -0.5,0.2 -1,0.3 -1.6,0.3 H 116.9 c -0.5,0 -1,-0.1 -1.5,-0.3 -0.5,-0.2 -0.9,-0.5 -1.3,-0.8 -0.4,-0.4 -0.7,-0.8 -0.9,-1.3 -0.2,-0.5 -0.3,-1 -0.3,-1.6 z"
       class="g3_1"
       id="path44"
       inkscape:connector-curvature="0"
       style="fill:none;stroke:#e0e0ef;stroke-width:1.14600003;stroke-linecap:butt;stroke-linejoin:miter" />
    <text
       x="118"
       y="569"
       class="s6_1"
       id="text46"
       style="font-size:18.34000015px;font-family:ArialMT_1f;white-space:pre;fill:#343a40">130</text>
    <text
       x="117"
       y="622"
       class="s5_1"
       id="text48"
       style="font-size:18.34000015px;font-family:SegoeUI_17;white-space:pre;fill:#000000">Base Planet name on wich the bot will operate off</text>
    <path
       d="m 112.9,682.2 v -32.1 c 0,-0.6 0.1,-1.1 0.3,-1.6 0.2,-0.5 0.5,-0.9 0.9,-1.3 0.4,-0.3 0.8,-0.6 1.3,-0.8 0.5,-0.2 1,-0.3 1.5,-0.3 h 1052.5 c 0.6,0 1.1,0.1 1.6,0.3 0.5,0.2 0.9,0.5 1.3,0.8 0.4,0.4 0.6,0.8 0.9,1.3 0.2,0.5 0.3,1 0.3,1.6 v 32.1 c 0,0.5 -0.1,1 -0.3,1.5 -0.3,0.5 -0.5,0.9 -0.9,1.3 -0.4,0.4 -0.8,0.7 -1.3,0.9 -0.5,0.2 -1,0.3 -1.6,0.3 H 116.9 c -0.5,0 -1,-0.1 -1.5,-0.3 -0.5,-0.2 -0.9,-0.5 -1.3,-0.9 -0.4,-0.4 -0.7,-0.8 -0.9,-1.3 -0.2,-0.5 -0.3,-1 -0.3,-1.5 z"
       class="g2_1"
       id="path50"
       inkscape:connector-curvature="0"
       style="fill:#ffffff" />
    <path
       d="m 112.9,682.2 v -32.1 c 0,-0.6 0.1,-1.1 0.3,-1.6 0.2,-0.5 0.5,-0.9 0.9,-1.3 0.4,-0.3 0.8,-0.6 1.3,-0.8 0.5,-0.2 1,-0.3 1.5,-0.3 h 1052.5 c 0.6,0 1.1,0.1 1.6,0.3 0.5,0.2 0.9,0.5 1.3,0.8 0.4,0.4 0.6,0.8 0.9,1.3 0.2,0.5 0.3,1 0.3,1.6 v 32.1 c 0,0.5 -0.1,1 -0.3,1.5 -0.3,0.5 -0.5,0.9 -0.9,1.3 -0.4,0.4 -0.8,0.7 -1.3,0.9 -0.5,0.2 -1,0.3 -1.6,0.3 H 116.9 c -0.5,0 -1,-0.1 -1.5,-0.3 -0.5,-0.2 -0.9,-0.5 -1.3,-0.9 -0.4,-0.4 -0.7,-0.8 -0.9,-1.3 -0.2,-0.5 -0.3,-1 -0.3,-1.5 z"
       class="g3_1"
       id="path52"
       inkscape:connector-curvature="0"
       style="fill:none;stroke:#e0e0ef;stroke-width:1.14600003;stroke-linecap:butt;stroke-linejoin:miter" />
    <text
       x="118"
       y="671"
       class="s6_1"
       id="text54"
       style="font-size:18.34000015px;font-family:ArialMT_1f;white-space:pre;fill:#343a40">K04M</text>
    <path
       d="m 135.3,819.8 c 0,-1.5 0.1,-3 0.4,-4.5 0.3,-1.5 0.8,-2.9 1.3,-4.3 0.6,-1.4 1.3,-2.7 2.2,-4 0.8,-1.2 1.7,-2.4 2.8,-3.5 1.1,-1 2.2,-2 3.5,-2.8 1.2,-0.8 2.6,-1.6 3.9,-2.1 1.4,-0.6 2.9,-1 4.3,-1.3 1.5,-0.3 3,-0.5 4.5,-0.5 h 45.9 c 1.5,0 3,0.2 4.5,0.5 1.4,0.3 2.9,0.7 4.3,1.3 1.3,0.5 2.7,1.3 3.9,2.1 1.3,0.8 2.4,1.8 3.5,2.8 1.1,1.1 2,2.3 2.8,3.5 0.9,1.3 1.6,2.6 2.2,4 0.5,1.4 1,2.8 1.3,4.3 0.3,1.5 0.4,3 0.4,4.5 0,1.5 -0.1,3 -0.4,4.4 -0.3,1.5 -0.8,2.9 -1.3,4.3 -0.6,1.4 -1.3,2.7 -2.2,4 -0.8,1.2 -1.7,2.4 -2.8,3.5 -1.1,1 -2.2,2 -3.5,2.8 -1.2,0.9 -2.6,1.6 -3.9,2.1 -1.4,0.6 -2.9,1.1 -4.3,1.3 -1.5,0.3 -3,0.5 -4.5,0.5 h -45.9 c -1.5,0 -3,-0.2 -4.5,-0.5 -1.4,-0.2 -2.9,-0.7 -4.3,-1.3 -1.3,-0.5 -2.7,-1.2 -3.9,-2.1 -1.3,-0.8 -2.4,-1.8 -3.5,-2.8 -1.1,-1.1 -2,-2.3 -2.8,-3.5 -0.9,-1.3 -1.6,-2.6 -2.2,-4 -0.5,-1.4 -1,-2.8 -1.3,-4.3 -0.3,-1.4 -0.4,-2.9 -0.4,-4.4 z"
       class="g4_1"
       id="path56"
       inkscape:connector-curvature="0"
       style="fill:#e0e0ef" />
    <text
       x="117"
       y="764"
       class="s7_1"
       id="text58"
       style="font-size:55.02999878px;font-family:SegoeUI_17;white-space:pre;fill:#000000">Expedition</text>
    <text
       x="136"
       y="927"
       class="s8_1"
       id="text60"
       style="font-size:27.52000046px;font-family:SegoeUI-Bold_1b;white-space:pre;fill:#000000">l</text>
    <path
       d="m 227,423.1 c 0,1.5 -0.1,3 -0.4,4.4 -0.3,1.5 -0.8,2.9 -1.3,4.3 -0.6,1.4 -1.3,2.8 -2.2,4 -0.8,1.3 -1.7,2.4 -2.8,3.5 -1.1,1 -2.2,2 -3.5,2.8 -1.2,0.9 -2.6,1.6 -3.9,2.1 -1.4,0.6 -2.9,1.1 -4.3,1.4 -1.5,0.2 -3,0.4 -4.5,0.4 -1.5,0 -3,-0.2 -4.5,-0.4 -1.5,-0.3 -2.9,-0.8 -4.3,-1.4 -1.4,-0.5 -2.7,-1.2 -4,-2.1 -1.2,-0.8 -2.4,-1.8 -3.4,-2.8 -1.1,-1.1 -2,-2.2 -2.9,-3.5 -0.8,-1.2 -1.5,-2.6 -2.1,-4 -0.6,-1.4 -1,-2.8 -1.3,-4.3 -0.3,-1.4 -0.5,-2.9 -0.5,-4.4 0,-1.5 0.2,-3 0.5,-4.5 0.3,-1.5 0.7,-2.9 1.3,-4.3 0.6,-1.4 1.3,-2.7 2.1,-4 0.9,-1.2 1.8,-2.4 2.9,-3.5 1,-1 2.2,-2 3.4,-2.8 1.3,-0.8 2.6,-1.5 4,-2.1 1.4,-0.6 2.8,-1 4.3,-1.3 1.5,-0.3 3,-0.5 4.5,-0.5 1.5,0 3,0.2 4.5,0.5 1.4,0.3 2.9,0.7 4.3,1.3 1.3,0.6 2.7,1.3 3.9,2.1 1.3,0.8 2.4,1.8 3.5,2.8 1.1,1.1 2,2.3 2.8,3.5 0.9,1.3 1.6,2.6 2.2,4 0.5,1.4 1,2.8 1.3,4.3 0.3,1.5 0.4,3 0.4,4.5 z"
       class="g5_1"
       id="path62"
       inkscape:connector-curvature="0"
       style="fill:#007bff" />
    <path
       d="m 227,819.8 c 0,1.5 -0.1,3 -0.4,4.4 -0.3,1.5 -0.8,2.9 -1.3,4.3 -0.6,1.4 -1.3,2.7 -2.2,4 -0.8,1.2 -1.7,2.4 -2.8,3.5 -1.1,1 -2.2,2 -3.5,2.8 -1.2,0.9 -2.6,1.6 -3.9,2.1 -1.4,0.6 -2.9,1.1 -4.3,1.3 -1.5,0.3 -3,0.5 -4.5,0.5 -1.5,0 -3,-0.2 -4.5,-0.5 -1.5,-0.2 -2.9,-0.7 -4.3,-1.3 -1.4,-0.5 -2.7,-1.2 -4,-2.1 -1.2,-0.8 -2.4,-1.8 -3.4,-2.8 -1.1,-1.1 -2,-2.3 -2.9,-3.5 -0.8,-1.3 -1.5,-2.6 -2.1,-4 -0.6,-1.4 -1,-2.8 -1.3,-4.3 -0.3,-1.4 -0.5,-2.9 -0.5,-4.4 0,-1.5 0.2,-3 0.5,-4.5 0.3,-1.5 0.7,-2.9 1.3,-4.3 0.6,-1.4 1.3,-2.7 2.1,-4 0.9,-1.2 1.8,-2.4 2.9,-3.5 1,-1 2.2,-2 3.4,-2.8 1.3,-0.8 2.6,-1.6 4,-2.1 1.4,-0.6 2.8,-1 4.3,-1.3 1.5,-0.3 3,-0.5 4.5,-0.5 1.5,0 3,0.2 4.5,0.5 1.4,0.3 2.9,0.7 4.3,1.3 1.3,0.5 2.7,1.3 3.9,2.1 1.3,0.8 2.4,1.8 3.5,2.8 1.1,1.1 2,2.3 2.8,3.5 0.9,1.3 1.6,2.6 2.2,4 0.5,1.4 1,2.8 1.3,4.3 0.3,1.5 0.4,3 0.4,4.5 z"
       class="g5_1"
       id="path64"
       inkscape:connector-curvature="0"
       style="fill:#007bff" />
  </g>
  <!-- Any embedded fonts defined here -->
  <style
     type="text/css"
     id="style68"><![CDATA[

@font-face {
	font-family: ArialMT_1f;
	src: url("fonts/ArialMT_1f.woff") format("woff");
}

@font-face {
	font-family: SegoeUI-Bold_1b;
	src: url("fonts/SegoeUI-Bold_1b.woff") format("woff");
}

@font-face {
	font-family: SegoeUI_17;
	src: url("fonts/SegoeUI_17.woff") format("woff");
}

]]></style>
</svg>
