<?xml version="1.0" ?><!DOCTYPE svg  PUBLIC '-//W3C//DTD SVG 1.1//EN'  'http://www.w3.org/Graphics/SVG/1.1/DTD/svg11.dtd'><svg height="512px" style="enable-background:new 0 0 512 512;" version="1.1" viewBox="0 0 512 512" width="512px" xml:space="preserve" xmlns="http://www.w3.org/2000/svg" xmlns:xlink="http://www.w3.org/1999/xlink"><g id="D_-_20_x2C__diamound_x2C__crystal_x2C__sucess_x2C__prize"><g><polygon points="129.119,122.046 81.542,201.341 168.766,201.341   "/><polygon points="82.021,210.712 247.185,458.457 172.861,210.712   "/><polygon points="241.565,117.002 137.074,117.002 177.263,197.381   "/><polygon points="325.132,201.341 251.525,119.555 186.096,201.341   "/><polygon points="374.927,117.002 261.835,117.002 334.537,197.782   "/><path d="M182.645,210.712l77.775,259.254l69.135-259.254H182.645z M251.314,257.566h-14.057v14.057    c0,2.588-2.097,4.686-4.685,4.686c-2.587,0-4.686-2.098-4.686-4.686v-14.057h-14.057c-2.587,0-4.686-2.097-4.686-4.685    c0-2.587,2.099-4.686,4.686-4.686h14.057v-14.057c0-2.587,2.098-4.686,4.686-4.686c2.588,0,4.685,2.099,4.685,4.686v14.057h14.057    c2.588,0,4.686,2.098,4.686,4.686C256,255.469,253.902,257.566,251.314,257.566z"/><polygon points="430.458,201.341 382.881,122.046 343.234,201.341   "/><polygon points="273.095,458.806 430.221,210.712 339.252,210.712   "/><path d="M167.913,407.502h-14.057v-14.057c0-2.588-2.098-4.686-4.686-4.686c-2.587,0-4.686,2.098-4.686,4.686v14.057h-14.056    c-2.587,0-4.686,2.098-4.686,4.686s2.098,4.686,4.686,4.686h14.056v14.057c0,2.588,2.099,4.686,4.686,4.686    c2.588,0,4.686-2.098,4.686-4.686v-14.057h14.057c2.588,0,4.686-2.098,4.686-4.686S170.501,407.502,167.913,407.502z"/><path d="M317.848,70.147h14.057v14.057c0,2.588,2.098,4.686,4.686,4.686s4.686-2.098,4.686-4.686V70.147h14.057    c2.588,0,4.686-2.098,4.686-4.686c0-2.587-2.098-4.686-4.686-4.686h-14.057V46.72c0-2.587-2.098-4.686-4.686-4.686    s-4.686,2.098-4.686,4.686v14.056h-14.057c-2.588,0-4.685,2.099-4.685,4.686C313.163,68.05,315.26,70.147,317.848,70.147z"/><path d="M420.929,341.905h-14.056v-14.057c0-2.588-2.098-4.686-4.686-4.686s-4.686,2.098-4.686,4.686v14.057h-14.057    c-2.588,0-4.686,2.098-4.686,4.686s2.098,4.686,4.686,4.686h14.057v14.057c0,2.588,2.098,4.686,4.686,4.686    s4.686-2.098,4.686-4.686v-14.057h14.056c2.589,0,4.686-2.098,4.686-4.686S423.518,341.905,420.929,341.905z"/></g></g><g id="Layer_1"/></svg>