<?xml version="1.0" ?><svg enable-background="new 0 0 52 52" id="Layer_1" version="1.1" viewBox="0 0 52 52" xml:space="preserve" xmlns="http://www.w3.org/2000/svg" xmlns:xlink="http://www.w3.org/1999/xlink"><g><g><path d="M20.9747314,45.9974365c0,0.5599976,0.4500122,1,1,1h2.8343506V49c0,0.5527344,0.4477539,1,1,1s1-0.4472656,1-1    v-2.0025635h2.8356323c0.5499878,0,1-0.4400024,1-1v-14h-9.6699829V45.9974365z"/></g><g><path d="M34,12h-4.0722656l-0.7982178-1.7172852c0.043457-0.0325317,0.0939331-0.0508423,0.1326904-0.0913086    L33.5478516,5.71875c0.3818359-0.3984375,0.3686523-1.03125-0.0302734-1.4130859    c-0.3984375-0.3828125-1.0317383-0.3691406-1.4140625,0.0302734l-3.8637695,4.0324097L26.809082,5.2904053V3    c0-0.5527344-0.4477539-1-1-1s-1,0.4472656-1,1v2.2931519l-1.3050537,2.8076782l-3.6070557-3.7648926    c-0.3818359-0.3994141-1.0151367-0.4130859-1.4140625-0.0302734C18.0839844,4.6875,18.0708008,5.3203125,18.4526367,5.71875    l4.1467896,4.3282471L21.6917114,12H18c-0.5522461,0-1,0.4472656-1,1s0.4477539,1,1,1h2.9747314v15.9974365h3.6900024v-7    c0-0.5500488,0.4500122-1,1-1s1,0.4499512,1,1v7h3.9799805V14H34c0.5522461,0,1-0.4472656,1-1S34.5522461,12,34,12z" fill="#F93E2B"/></g></g></svg>