<svg xmlns="http://www.w3.org/2000/svg" data-name="Layer 1" height="428.6528925098737" width="424.2479348222737"><rect id="backgroundrect" width="100%" height="100%" x="0" y="0" fill="none" stroke="none" class="selected" style=""/><defs><style>.cls-1{fill:#1d1d1b;}</style></defs><title/><g class="currentLayer" style=""><title>Layer 1</title><g id="space-shuttle" class="" stroke="#e84141" stroke-opacity="1" stroke-width="5" fill="#e84141" fill-opacity="1"><path class="cls-1" d="M254.73272924464567,106.60946118116648 c3.7855210304260254,-1.3702041482925418 2.8769959831237797,-84.30361312389374 -35.96244978904724,-83.36610502243042 s-42.0949938583374,74.42372005462647 -41.64073133468628,76.65931629657746 c1.4384979915618898,7.2116007804870605 7.571042060852051,4.543308491706849 35.05392474174499,2.235596241950989 S250.94720821421964,107.97966532945902 254.73272924464567,106.60946118116648 zm-67.68511602401733,-13.485693459510804 c-2.4984438800811772,-1.3702041482925418 4.769756498336793,-63.10150682926178 33.16116422653198,-60.36109853267669 s28.39140772819519,59.49570643901825 24.15162417411804,60.43321454048157 s-15.596346645355226,-3.173104343414307 -29.82990571975708,-2.6682922887802127 S190.37887172740324,94.92666791677745 187.04761322062834,93.12376772165568 zm59.12983849525452,35.19261180877685 c-2.8012855625152593,2.235596241950989 -5.224019021987917,3.6058003902435303 -4.239783554077149,5.841396632194519 a68.13937854766846,64.90440702438354 0 0 0 19.38186767578125,9.447197022438049 c2.347023038864136,0.4326960468292237 0.9842354679107667,-1.3702041482925418 1.4384979915618898,-5.408700585365296 S248.52447475474702,126.44136332750588 246.25316213649137,128.24426352262765 zm-6.586806592941285,23.005006489753722 c-1.4384979915618898,1.3702041482925418 -4.694046077728272,3.173104343414307 -4.239783554077149,5.841396632194519 s23.167388706207277,13.990505514144898 26.498647212982178,14.423201560974121 s0.9842354679107667,-3.6058003902435303 0.45426252365112313,-6.778904733657837 S240.95343269389497,149.9511818718937 239.59064512294157,151.2492700123814 zm25.06014922142029,34.687799754142766 c0.9842354679107667,-3.173104343414307 -28.39140772819519,-15.793405709266663 -30.738430767059324,-16.226101756095886 a4.845466918945314,4.61542449951172 0 0 0 -3.331258506774903,4.543308491706849 c0,3.6058003902435303 27.482882680892942,15.360709662437438 31.722666234970095,16.226101756095886 S263.74226929705964,189.11017410993847 264.6507943443618,185.93706976652413 zm-72.90913504600526,41.25035646438599 a6.965358695983887,6.634672718048096 0 0 0 -0.9085250473022461,7.2116007804870605 a92.89668608665465,88.48634157657624 0 0 0 21.501759452819822,3.173104343414307 a69.27503485679627,65.98614714145661 0 0 0 20.36610314369202,-2.019248218536377 c0.9842354679107667,-1.3702041482925418 0,-5.841396632194519 0,-5.841396632194519 s-8.025304584503175,0.4326960468292237 -20.82036566734314,0 S194.46723444026335,225.3124100279835 191.81736971896513,227.18742623091012 zM212.10776244204862,264.615634281638 c-12.795061082839966,-0.4326960468292237 -17.413396739959715,-4.182728452682496 -20.138971881866457,-2.235596241950989 a6.965358695983887,6.634672718048096 0 0 0 -0.9085250473022461,7.2116007804870605 a92.89668608665465,88.48634157657624 0 0 0 21.501759452819822,3.173104343414307 a69.27503485679627,65.98614714145661 0 0 0 20.36610314369202,-2.019248218536377 c0.9842354679107667,-1.3702041482925418 0,-5.841396632194519 0,-5.841396632194519 S224.90282352488856,265.0483303284672 212.10776244204862,264.615634281638 zM211.42636865657195,305.93810675382883 c-12.795061082839966,-0.4326960468292237 -17.413396739959715,-4.182728452682496 -20.138971881866457,-2.235596241950989 a6.965358695983887,6.634672718048096 0 0 0 -0.9085250473022461,7.2116007804870605 a92.89668608665465,88.48634157657624 0 0 0 21.501759452819822,3.173104343414307 a69.27503485679627,65.98614714145661 0 0 0 20.36610314369202,-2.019248218536377 c0.9842354679107667,-1.3702041482925418 0,-5.841396632194519 0,-5.841396632194519 S224.22142973941192,305.93810675382883 211.42636865657195,305.93810675382883 zm135.59736330986024,-45.50520092487336 s-3.558389768600464,4.038496437072754 -3.104127244949341,5.408700585365296 a214.79046326637268,204.5931141424179 0 0 0 18.70047389030457,14.423201560974121 c0.6813937854766847,0.4326960468292237 1.6656292533874515,-0.4326960468292237 2.1198917770385743,-2.451944265365601 S347.9322570137344,261.22618191480905 347.0237319664322,260.14444179773596 zm-18.70047389030457,4.976004538536073 s-4.0126522922515875,2.235596241950989 -4.239783554077149,4.254844460487366 s32.176928758621216,25.889646801948548 33.38829548835754,25.889646801948548 s1.8927605152130127,-1.8029001951217651 2.347023038864136,-4.471192483901978 S330.4431498531662,265.0483303284672 328.3232580761276,265.0483303284672 zm13.930717391967773,34.03875568389893 a92.74526524543762,88.34210956096649 0 0 0 -22.03173239707947,-15.28859365463257 c-1.2113667297363284,0.4326960468292237 -4.0126522922515875,4.038496437072754 -3.558389768600464,5.408700585365296 a70.03213906288147,66.70730721950531 0 0 0 22.713126182556152,12.403953342437745 C344.4495776657424,301.8274943089512 341.34545042079316,300.2409421372441 342.25397546809535,299.0870860123661 zm70.33498074531555,7.2116007804870605 c-13.249323606491089,-37.2839760351181 -43.53349184989929,-52.861033720970156 -77.60318112373352,-93.17388208389282 s-51.710217275619506,-111.77981209754944 -59.96265312194824,-143.65508754730226 S260.56243163150174,1.320089786055398 218.92170029681546,3.0508739733722905 s-46.03193572998047,31.875275449752806 -55.49573830604553,51.70717759609222 s-22.713126182556152,97.35661053657532 -51.710217275619506,141.20314328193663 s-49.81745676040649,43.84653274536133 -79.49594163894653,67.93327935218811 s-28.39140772819519,44.49557681560516 -27.10433057785034,57.692806243896484 S22.074606714662153,334.279697821143 22.074606714662153,334.279697821143 s-1.5899188327789309,18.02900195121765 -1.5899188327789309,20.26459819316864 S28.58570288699491,363.6309129977253 53.6458521084152,365.7943932318714 s59.12983849525452,0.4326960468292237 60.568336486816406,-2.235596241950989 a20.290392723083496,19.327090091705323 0 0 0 0.45426252365112313,-8.581804928779603 h16.58058211326599 a136.2787570953369,129.8088140487671 0 0 0 0.45426252365112313,29.279099168777464 c2.347023038864136,5.841396632194519 25.59012216567993,7.2116007804870605 25.59012216567993,7.2116007804870605 a237.57929986953735,226.30003249168396 0 0 0 -2.347023038864136,24.375210638046266 c0.45426252365112313,4.543308491706849 14.233559074401857,4.976004538536073 43.079229326248175,5.408700585365296 s57.237077980041505,-0.8653920936584474 59.65981143951416,-4.471192483901978 s-1.4384979915618898,-23.87039858341217 -1.4384979915618898,-23.87039858341217 a48.75751087188721,46.44270902633667 0 0 0 6.132544069290161,-0.4326960468292237 a28.694249410629272,27.33196695804596 0 0 0 17.034844636917114,-8.581804928779603 c3.7855210304260254,-5.408700585365296 0.45426252365112313,-23.437702536582947 0.45426252365112313,-23.437702536582947 l13.703586130142213,-0.8653920936584474 s1.4384979915618898,9.952009077072145 1.4384979915618898,12.620301365852356 s12.795061082839966,4.038496437072754 33.16116422653198,4.543308491706849 s52.08876937866211,-3.6058003902435303 53.45155694961547,-5.841396632194519 a55.72286956787109,53.077381744384766 0 0 0 -1.1356563091278078,-15.50494167804718 s30.284168243408203,-1.8029001951217651 33.464005908966065,-2.3798282575607304 S425.91399024051054,343.2941987967518 412.66466663401945,305.93810675382883 zM292.73936039012295,161.70609114408762 a240.53200627326964,229.1125567960739 0 0 0 20.668944826126097,44.423460807800296 c12.340798559188844,18.894394044876098 27.93714520454407,27.043502926826477 24.605886697769165,28.846403121948242 S312.95404269259797,228.77397840261727 302.96026717227323,210.74497645139965 A106.90311389923095,101.82780302047729 0 0 1 292.73936039012295,161.70609114408762 zM131.24903323214872,195.88907884359628 c14.233559074401857,-28.846403121948242 20.36610314369202,-43.702300729751585 20.36610314369202,-43.702300729751585 c1.8927605152130127,0 2.347023038864136,26.17811083316803 -8.025304584503175,50.481205463409424 s-26.498647212982178,36.92339599609375 -36.416712312698365,39.66380429267883 a111.06718703269958,105.79418344974518 0 0 1 -22.258863658905028,3.173104343414307 S117.01547415774687,224.73548196554455 131.24903323214872,195.88907884359628 zM91.95532493632658,352.74139581918985 a129.38910881996154,123.24625733852386 0 0 1 -33.61542675018311,-0.4326960468292237 c-16.58058211326599,-1.8029001951217651 -19.38186767578125,0 -19.38186767578125,-6.2740926790237435 s-2.8012855625152593,-38.72629619121552 32.63119128227234,-36.92339599609375 a22.713126182556152,21.63480234146118 0 0 1 22.258863658905028,22.067498388290407 C93.84808545153959,342.3566906952885 94.83232091945037,351.8038877177265 91.95532493632658,352.74139581918985 zm155.35778308868407,59.06301039218902 a243.48471267700194,231.92508110046384 0 0 1 -45.426252365112305,2.091364226341248 c-20.517523984909058,-0.576928062438965 -34.372530956268314,0 -35.96244978904724,-2.091364226341248 a40.12652292251587,38.22148413658142 0 0 1 1.2870771503448488,-17.452073888778685 c0.5299729442596436,-0.7211600780487061 18.624763469696045,1.5144361639022828 39.44512913703918,0.9375081014633179 s37.855210304260254,-2.6682922887802127 38.83944577217102,-1.5144361639022828 A64.9595408821106,61.87553469657898 0 0 1 247.31310802501065,411.8044062113789 zm117.19973110198976,-51.85140961170197 a98.42354679107666,93.75081014633179 0 0 1 -30.738430767059324,3.173104343414307 c-15.142084121704102,0.4326960468292237 -22.713126182556152,0 -23.6216512298584,-6.778904733657837 s-0.45426252365112313,-32.884899559021 28.39140772819519,-34.687799754142766 C361.6358431438766,320.36130831480295 368.7526226810775,357.7174003577259 364.5128391270004,359.9529965996769 zm38.83944577217102,-17.091493849754333 l-22.258863658905028,1.8029001951217651 a42.01928343772888,40.02438433170318 0 0 0 -42.0949938583374,-35.12049580097199 C300.61324413340907,308.53428303480416 295.3892251114212,351.8038877177265 295.3892251114212,351.8038877177265 s-17.034844636917114,4.543308491706849 -16.05060916900635,1.3702041482925418 s-2.347023038864136,-107.2365036058426 -8.025304584503175,-127.06840575218202 s-17.943369684219363,-25.673298778533937 -23.167388706207277,-26.610806879997256 s-8.479567108154297,10.384705123901368 -7.571042060852051,11.75490927219391 s14.687821598052977,0 17.48910716056824,41.89940053462983 s9.918065099716188,121.73182117462157 4.769756498336793,125.3376215648651 s-36.416712312698365,7.644296827316285 -68.59364107131958,5.841396632194519 s-42.0949938583374,-2.235596241950989 -45.88051488876342,-10.384705123901368 s7.116779537200928,-127.06840575218202 11.356563091278076,-143.2945075082779 s11.356563091278076,-18.461697998046876 17.034844636917114,-19.831902146339417 A6.813937854766846,6.490440702438355 0 0 0 181.82359419864042,202.16317152262002 c-0.9085250473022461,-2.235596241950989 -9.00954005241394,-2.6682922887802127 -16.58058211326599,-0.8653920936584474 s-20.36610314369202,12.187605319023133 -24.15162417411804,52.71680170536042 s-7.116779537200928,90.14500975608826 -8.479567108154297,90.14500975608826 s-25.06014922142029,-1.8029001951217651 -25.06014922142029,-1.8029001951217651 s4.239783554077149,-43.26960468292236 -34.52395179748535,-45.07250487804413 s-43.079229326248175,25.240602731704712 -43.079229326248175,25.240602731704712 s-9.918065099716188,-0.8653920936584474 -9.463802576065063,-4.038496437072754 s5.678281545639039,-40.09650033950806 31.722666234970095,-50.913901510238645 s64.35385751724243,-13.485693459510804 81.84296467781067,-31.514695410728454 s27.93714520454407,-63.10150682926178 29.82990571975708,-82.9334089756012 s0,-65.76979911804199 9.00954005241394,-89.71231370925904 s15.142084121704102,-49.54369736194611 50.650271387100226,-49.54369736194611 c56.63139461517334,0 54.89005494117737,198.7517175102234 80.48017710685731,214.54512321949005 a129.38910881996154,123.24625733852386 0 0 0 40.73220628738403,18.461697998046876 a124.46793148040773,118.55871683120728 0 0 1 47.31901288032532,49.615813369750974 C406.1535704616867,327.93348913431436 403.3522848991714,342.7893867421177 403.3522848991714,342.7893867421177 z" id="svg_1" stroke="#e84141" stroke-opacity="1" stroke-width="5" fill="#e84141" fill-opacity="1"/></g></g></svg>