<?xml version="1.0" encoding="UTF-8" standalone="no"?>
<svg
   xmlns:dc="http://purl.org/dc/elements/1.1/"
   xmlns:cc="http://creativecommons.org/ns#"
   xmlns:rdf="http://www.w3.org/1999/02/22-rdf-syntax-ns#"
   xmlns:svg="http://www.w3.org/2000/svg"
   xmlns="http://www.w3.org/2000/svg"
   viewBox="0 0 1496 1496"
   height="1496"
   width="1496"
   xml:space="preserve"
   id="svg2"
   version="1.1"><metadata
     id="metadata8"><rdf:RDF><cc:Work
         rdf:about=""><dc:format>image/svg+xml</dc:format><dc:type
           rdf:resource="http://purl.org/dc/dcmitype/StillImage" /></cc:Work></rdf:RDF></metadata><defs
     id="defs6"><clipPath
       id="clipPath18"
       clipPathUnits="userSpaceOnUse"><path
         id="path16"
         d="M 0,1122 H 1122 V 0 H 0 Z" /></clipPath></defs><g
     transform="matrix(1.3333333,0,0,-1.3333333,0,1496)"
     id="g10"><g
       id="g12"><g
         clip-path="url(#clipPath18)"
         id="g14"><g
           transform="translate(788.4717,522.7998)"
           id="g20"><path
             id="path22"
             style="fill:#272727;fill-opacity:1;fill-rule:nonzero;stroke:none"
             d="M 0,0 H -5.987 -72.185 L -3.36,96.879 -72.185,193.81 -87.945,152.62 -146.629,-0.419 h -68.036 -72.185 l -67.195,96.93 67.195,96.878 h 72.185 l -68.824,-96.931 68.824,-96.877 74.498,194.229 H -99.871 -72.185 -5.987 0 L 67.195,96.931 Z m -358.878,-179.676 c -152.516,0 -276.609,124.093 -276.609,276.607 0,152.462 124.093,276.555 276.609,276.555 32.466,0 63.673,-5.622 92.674,-16.024 -97.771,-46.075 -165.438,-145.527 -165.438,-260.741 0,-115.056 67.457,-214.404 164.966,-260.582 -28.845,-10.246 -59.892,-15.815 -92.202,-15.815 m 225.909,564.352 c -62.205,48.912 -140.644,78.123 -225.909,78.123 -202.111,0 -365.922,-163.81 -365.922,-365.868 0,-202.109 163.811,-365.92 365.922,-365.92 85.057,0 163.337,29.001 225.435,77.702 154.563,5.2 278.235,132.183 278.235,288.008 0,155.614 -123.407,282.49 -277.761,287.955" /></g></g></g></g></svg>