<?xml version="1.0" ?><!DOCTYPE svg  PUBLIC '-//W3C//DTD SVG 1.1//EN'  'http://www.w3.org/Graphics/SVG/1.1/DTD/svg11.dtd'><svg height="512px" style="enable-background:new 0 0 512 512;" version="1.1" viewBox="0 0 512 512" width="512px" xml:space="preserve" xmlns="http://www.w3.org/2000/svg" xmlns:xlink="http://www.w3.org/1999/xlink"><g id="Army_x2C__bomb_x2C__missile_x2C__war_x2C__military"><g><path d="M172.309,125.401L172.309,125.401    c16.225,0,29.477,13.261,29.477,29.479v159.357c0,0.901,0,1.803-0.065,2.693l0,0l0,0c-0.208,2.207-0.698,4.351-1.317,6.423    l-6.836,33.143h8.218v30.101h-58.619v-30.101h8.147l-6.833-32.593c-1.109-3.034-1.661-6.281-1.661-9.666V154.88    C142.821,138.662,156.078,125.401,172.309,125.401L172.309,125.401z M339.391,125.401L339.391,125.401    c16.227,0,29.483,13.261,29.483,29.479v159.357c0,0.901-0.067,1.803-0.131,2.693l0,0l0,0c-0.213,2.207-0.636,4.351-1.324,6.423    l-6.834,33.143h8.289v30.101h-58.628v-30.101h8.088l-6.834-32.593c-1.04-3.034-1.657-6.281-1.657-9.666V154.88    C309.843,138.662,323.163,125.401,339.391,125.401L339.391,125.401z M255.85,125.401L255.85,125.401    c16.223,0,29.477,13.261,29.477,29.479v159.357c0,0.901-0.071,1.803-0.143,2.693l0,0l0,0c-0.202,2.207-0.617,4.351-1.306,6.423    l-6.834,33.143h8.282v30.101h-58.615v-30.101h8.145l-6.834-32.593c-1.104-3.034-1.655-6.281-1.655-9.666V154.88    C226.367,138.662,239.624,125.401,255.85,125.401L255.85,125.401z" style="fill-rule:evenodd;clip-rule:evenodd;fill:#262626;"/></g></g><g id="Layer_1"/></svg>