<?xml version="1.0" ?><svg id="Layer_1" style="enable-background:new 0 0 512 512;" version="1.1" viewBox="0 0 512 512" xml:space="preserve" xmlns="http://www.w3.org/2000/svg" xmlns:xlink="http://www.w3.org/1999/xlink"><style type="text/css">
	.st0{fill:#FFFFFF;stroke:#231F20;stroke-width:13;stroke-linecap:round;stroke-linejoin:round;stroke-miterlimit:10;}
	.st1{fill:#FF465F;}
	.st2{fill:none;stroke:#231F20;stroke-width:13;stroke-linecap:round;stroke-linejoin:round;stroke-miterlimit:10;}
	.st3{fill:#FFFFFF;stroke:#231F20;stroke-width:10;stroke-linecap:round;stroke-linejoin:round;stroke-miterlimit:10;}
	.st4{clip-path:url(#SVGID_2_);}
	.st5{clip-path:url(#SVGID_4_);}
	.st6{clip-path:url(#SVGID_6_);}
	.st7{clip-path:url(#SVGID_8_);}
	.st8{clip-path:url(#SVGID_8_);fill:none;}
	.st9{clip-path:url(#SVGID_10_);}
	.st10{clip-path:url(#SVGID_10_);fill:none;}
	.st11{clip-path:url(#SVGID_12_);}
	.st12{clip-path:url(#SVGID_12_);fill:none;}
	.st13{fill:none;stroke:#231F20;stroke-width:3.9318;stroke-linecap:round;stroke-linejoin:round;stroke-miterlimit:10;}
	.st14{fill:#FFFFFF;stroke:#231F20;stroke-width:3.9318;stroke-linecap:round;stroke-linejoin:round;stroke-miterlimit:10;}
	.st15{clip-path:url(#SVGID_14_);}
	.st16{clip-path:url(#SVGID_16_);}
	.st17{clip-path:url(#SVGID_16_);fill:none;}
	.st18{fill:none;stroke:#231F20;stroke-width:7.5752;stroke-linecap:round;stroke-linejoin:round;stroke-miterlimit:10;}
	.st19{fill:#FFFFFF;stroke:#231F20;stroke-width:7.5752;stroke-linecap:round;stroke-linejoin:round;stroke-miterlimit:10;}
	.st20{clip-path:url(#SVGID_18_);}
	.st21{clip-path:url(#SVGID_20_);}
	.st22{clip-path:url(#SVGID_20_);fill:none;}
</style><g><line class="st0" x1="320.8" x2="168.8" y1="220.8" y2="372.9"/><g><rect class="st2" height="114.3" transform="matrix(0.7071 0.7071 -0.7071 0.7071 238.4059 -115.6424)" width="74.8" x="221.4" y="172.8"/><polygon class="st2" points="349.6,139.1 254.5,146.9 341.9,234.3   "/><g><defs><rect height="114.3" id="SVGID_5_" transform="matrix(0.7071 0.7071 -0.7071 0.7071 238.6544 -115.0427)" width="74.8" x="220.8" y="173.4"/></defs><clipPath id="SVGID_2_"><use style="overflow:visible;" xlink:href="#SVGID_5_"/></clipPath><g class="st4"><line class="st2" x1="325.2" x2="325.2" y1="157.8" y2="303.3"/><line class="st2" x1="306.1" x2="306.1" y1="157.8" y2="303.3"/><line class="st2" x1="286.9" x2="286.9" y1="157.8" y2="303.3"/><line class="st2" x1="267.8" x2="267.8" y1="157.8" y2="303.3"/><line class="st2" x1="248.6" x2="248.6" y1="157.8" y2="303.3"/><line class="st2" x1="229.5" x2="229.5" y1="157.8" y2="303.3"/><line class="st2" x1="210.3" x2="210.3" y1="157.8" y2="303.3"/><line class="st2" x1="191.2" x2="191.2" y1="157.8" y2="303.3"/></g></g><path class="st2" d="M216.6,276.6c-6.8,6.8-17.8,6.8-24.6,0"/><path class="st2" d="M167.5,301.1c-6.8-6.8-6.8-17.8,0-24.6c6.8-6.8,17.8-6.8,24.6,0"/></g></g></svg>