<?xml version="1.0" ?><!DOCTYPE svg  PUBLIC '-//W3C//DTD SVG 1.1//EN'  'http://www.w3.org/Graphics/SVG/1.1/DTD/svg11.dtd'><svg height="512px" style="enable-background:new 0 0 512 512;" version="1.1" viewBox="0 0 512 512" width="512px" xml:space="preserve" xmlns="http://www.w3.org/2000/svg" xmlns:xlink="http://www.w3.org/1999/xlink"><g id="_x35_0_x2C__satellite_x2C__antenna_x2C__radar_x2C__space_x2C__Signal"><g><path d="M248.246,341.203l35.994-20.794l-19.023-32.917l-35.993,20.794    L248.246,341.203z M291.669,325.32l-42.895,24.741c-1.897,1.088-4.32,0.467-5.408-1.431l-23.001-39.816    c-1.088-1.896-0.436-4.32,1.46-5.408l42.894-24.773c1.896-1.088,4.32-0.436,5.408,1.461l22.97,39.786    C294.217,321.775,293.563,324.201,291.669,325.32z M92.985,372.97L56.215,394.23l28.565,49.516l36.802-21.261L92.985,372.97z     M77.911,447.725l-28.566-49.546l-23.343,13.489l28.597,49.516L77.911,447.725z M99.855,369.022l28.595,49.515l29.964-17.313    l27.229-48.706l-55.67-0.901L99.855,369.022z M389.268,201.92l28.598,49.547l36.803-21.261l-28.627-49.516L389.268,201.92z     M410.995,255.414L382.4,205.899l-28.97,16.722l-27.073,48.614l55.825,0.808L410.995,255.414z M432.94,176.711l28.597,49.547    l24.462-14.143l-28.596-49.546L432.94,176.711z M160.529,140.563l-7.336,4.258l5.129,29.902l25.551-14.734L160.529,140.563z     M307.458,97.793L42.663,250.658l25.114,43.517c3.234,5.47,7.366,10.133,12.092,13.862L280.571,192.16    c1.803-1.025,4.135-0.404,5.19,1.398c1.027,1.834,0.404,4.165-1.398,5.223L86.956,312.73c3.511,1.896,7.21,3.357,11.034,4.383    c12.278,3.296,25.798,1.959,37.58-4.755l40.003-23.063l98.845-57.1l0.093-0.031l0.093-0.063l39.539-22.814    c11.872-6.869,19.891-17.997,23.219-30.338c3.293-12.34,1.926-25.892-4.851-37.766L307.458,97.793z M336.831,379.466l0.188-0.621    l0.154-0.591v-0.031l0.125-0.59v-0.031l0.155-0.622l0,0l0.125-0.621l0,0l0.123-0.622l0,0l0.125-0.621l0,0l0.093-0.622l0,0    l0.124-0.622v-0.031l0.094-0.59v-0.031l0.063-0.621l0,0l0.094-0.623v-0.03l0.061-0.622l0,0l0.063-0.621l0.032-0.031l0.029-0.591    v-0.03l0.063-0.623v-0.03l0.03-0.591v-0.031l0.032-0.621v-0.031l0.031-0.591v-0.03l0.031-0.623v-0.03v-0.622v-0.031v-0.59v-0.031    v-0.621v-0.032v-0.591v-0.063l-0.031-0.59v-0.031l-0.031-0.621v-0.031l-0.032-0.59v-0.063l-0.03-0.591v-0.031l-0.063-0.622v-0.031    l-0.062-0.59v-0.063l-0.063-0.591v-0.03l-0.061-0.591v-0.062l-0.094-0.591v-0.063l-0.063-0.56l-0.03-0.063l-0.093-0.59v-0.063    l-0.095-0.591v-0.063l-0.123-0.559v-0.063l-0.124-0.591v-0.063l-0.125-0.559v-0.063l-0.125-0.591l-0.031-0.063l-0.125-0.559    v-0.063l-0.154-0.56v-0.063l-0.156-0.59l-0.029-0.063l-0.125-0.559l-0.031-0.063l-0.154-0.561l-0.031-0.093l-0.156-0.528    l-0.03-0.094l-0.156-0.559l-0.032-0.063l-0.186-0.56l-0.031-0.063l-0.186-0.56v-0.062l-0.219-0.56v-0.063l-0.217-0.56    l-0.031-0.062l-0.187-0.561l-0.032-0.062l-0.217-0.56l-0.03-0.063l-0.498-1.149l-0.032-0.094l-0.496-1.118l-0.062-0.094    l-0.218-0.529l-0.313-0.59l-0.029-0.094l-0.281-0.527c-0.403-0.777-0.807-1.586-1.273-2.363l-91.975,53.09l0.281,0.498    l0.061,0.093l0.311,0.467l0.063,0.124l0.279,0.467l0.063,0.093l0.311,0.466l0.062,0.094l0.311,0.466l0.063,0.093l0.311,0.467    l0.062,0.094l0.311,0.465l0.063,0.094l0.342,0.467l0.062,0.093l0.342,0.435l0.062,0.094l0.342,0.436l0.063,0.094l0.342,0.435    l0.062,0.093l0.342,0.436l0.062,0.063l0.342,0.466l0.063,0.062l0.372,0.436l0.063,0.063l0.372,0.436l0.063,0.063l0.372,0.435    l0.063,0.063l0.372,0.435l0.063,0.063l0.372,0.404l0.063,0.062l0.404,0.436l0.061,0.063l0.406,0.403l0.061,0.063l0.404,0.404    l0.032,0.063l0.435,0.403l0.062,0.031l0.405,0.404l0.062,0.062l0.403,0.405l0.063,0.03l0.435,0.404l0.03,0.031l0.435,0.404    l0.063,0.03l0.436,0.373l0.062,0.063l0.435,0.373l0.063,0.031l0.435,0.373l0.062,0.03l0.467,0.373l0.032,0.032l0.465,0.372    l0.528,0.373l0.032,0.031l0.466,0.373l0.062,0.031l0.467,0.342l0.032,0.031l0.497,0.342l0.032,0.031l0.497,0.342l0.031,0.03    l0.497,0.312l0.063,0.031l0.497,0.342h0.031l0.496,0.342h0.032l0.528,0.312l0.031,0.03l0.497,0.311l0.063,0.031l0.497,0.311h0.031    l0.528,0.312h0.031l0.528,0.312h0.031l0.528,0.311h0.03l0.56,0.279l0.031,0.031l0.528,0.279h0.032l0.527,0.28h0.032l0.558,0.248    l0.032,0.031l0.56,0.249l0,0l0.56,0.279h0.031l0.559,0.248h0.031l0.56,0.25h0.032l0.56,0.248h0.029l0.561,0.218h0.031l0.59,0.218    l0,0l0.591,0.217l0.592,0.218h0.029l0.592,0.218l0,0l0.59,0.187h0.031l0.591,0.187l0,0l0.622,0.187l0.589,0.187l0.623,0.156    c13.117,3.512,27.508,2.082,40.128-5.13l0.156-0.093C324.802,404.426,333.319,392.614,336.831,379.466z M85.215,97.637    c-0.963,1.958-3.327,2.766-5.315,1.803c-1.958-0.963-2.768-3.357-1.804-5.314c3.357-6.777,7.74-13.087,13.024-18.713    c5.098-5.439,11.065-10.227,17.842-14.143l0.218-0.124c6.745-3.854,13.831-6.62,20.981-8.269    c7.491-1.771,15.136-2.394,22.659-1.896c2.206,0.125,3.854,2.021,3.729,4.197c-0.123,2.176-2.02,3.854-4.227,3.729    c-6.744-0.435-13.613,0.124-20.358,1.71c-6.465,1.522-12.838,3.979-18.835,7.429l-0.188,0.093    c-6.092,3.513-11.469,7.834-16.039,12.713C92.146,85.888,88.23,91.576,85.215,97.637z M122.079,113.955    c-1.088,1.928-3.542,2.58-5.439,1.492c-1.896-1.088-2.548-3.544-1.46-5.439c1.616-2.828,3.636-5.471,5.998-7.864    c2.3-2.3,4.943-4.32,7.896-6.03c2.952-1.74,6.061-2.984,9.168-3.822c3.232-0.871,6.528-1.275,9.823-1.275    c2.176,0,3.978,1.772,3.978,3.979c0,2.176-1.802,3.947-3.978,3.947c-2.582,0-5.192,0.343-7.772,1.026    c-2.486,0.652-4.941,1.647-7.242,2.983c-2.332,1.338-4.413,2.953-6.217,4.787C124.969,109.604,123.353,111.717,122.079,113.955z     M143.65,117.033c-0.746-0.188-1.584-0.094-2.3,0.311c-0.714,0.404-1.181,1.025-1.399,1.74l-0.03,0.125    c-0.188,0.745-0.093,1.585,0.311,2.3c0.404,0.714,1.088,1.212,1.834,1.398c0.777,0.218,1.616,0.124,2.33-0.28    c0.685-0.404,1.151-1.025,1.369-1.74l0.032-0.125c0.218-0.745,0.123-1.585-0.281-2.299    C145.081,117.748,144.396,117.25,143.65,117.033z M137.528,110.754c2.548-1.461,5.47-1.771,8.081-1.088    c2.643,0.715,5.036,2.424,6.496,4.973c1.461,2.549,1.772,5.471,1.058,8.082l-0.063,0.217c-0.714,2.549-2.423,4.85-4.912,6.279    c-2.548,1.461-5.469,1.771-8.081,1.057c-2.611-0.684-5.004-2.424-6.464-4.973c-1.462-2.549-1.772-5.439-1.088-8.082l0.062-0.186    C133.362,114.484,135.042,112.184,137.528,110.754z M103.119,105.5c-0.995,1.959-3.388,2.705-5.347,1.711    c-1.927-0.996-2.704-3.389-1.709-5.348c2.518-4.88,5.78-9.418,9.635-13.459c3.73-3.885,8.112-7.366,13.055-10.195    c4.91-2.859,10.071-4.91,15.354-6.186c5.44-1.336,11.004-1.863,16.444-1.615c2.206,0.093,3.885,1.928,3.792,4.134    c-0.093,2.177-1.927,3.886-4.134,3.792c-4.726-0.217-9.542,0.248-14.236,1.368c-4.538,1.118-9.014,2.891-13.273,5.346    c-4.227,2.456-8.019,5.44-11.283,8.858C108.092,97.389,105.295,101.305,103.119,105.5z M235.75,385.527l91.974-53.121    l-52.748-91.353l-92.005,53.121L235.75,385.527z" style="fill-rule:evenodd;clip-rule:evenodd;"/></g></g><g id="Layer_1"/></svg>